<svg height="512pt" viewBox="0 0 512 512" width="512pt" xmlns="http://www.w3.org/2000/svg"><path d="m256 0c-140.964844 0-256 115.054688-256 256 0 140.964844 115.054688 256 256 256 140.964844 0 256-115.054688 256-256 0-140.964844-115.054688-256-256-256zm-226 256c0-124.621094 101.378906-226 226-226 56.921875 0 108.988281 21.160156 148.769531 56.019531l-59.460937 59.449219c-29.796875-16.097656-60.078125-24.46875-89.308594-24.46875-78.1875 0-152.398438 61.742188-187.058594 108.089844l-20.082031 26.910156 20.082031 26.921875c15.109375 20.03125 42.558594 47.484375 71.386719 67.527344l-54.308594 54.320312c-34.859375-39.78125-56.019531-91.847656-56.019531-148.769531zm266.601562-19.390625c2.820313 5.878906 4.398438 12.449219 4.398438 19.390625 0 24.808594-20.191406 45-45 45-6.941406 0-13.511719-1.578125-19.390625-4.398438zm-81.203124 38.78125c-2.820313-5.878906-4.398438-12.449219-4.398438-19.390625 0-24.808594 20.191406-45 45-45 6.941406 0 13.511719 1.578125 19.390625 4.398438zm81.929687-81.929687c-11.859375-7.871094-26.066406-12.460938-41.328125-12.460938-41.351562 0-75 33.648438-75 75 0 15.261719 4.589844 29.46875 12.460938 41.328125-2.664063 2.664063 10.640624-10.640625-31.550782 31.550781-41.5-27.6875-68.488281-63.320312-68.929687-63.910156l-6.691407-8.96875 6.691407-8.96875c.71875-.960938 72.730469-96.03125 163.019531-96.03125 24.230469 0 47.050781 7.019531 67.039062 16.75zm-82.65625 125.078124c11.859375 7.871094 26.066406 12.460938 41.328125 12.460938 41.351562 0 75-33.648438 75-75 0-15.261719-4.589844-29.46875-12.460938-41.328125l31.382813-31.382813c27.207031 18.203126 53.832031 44.71875 68.097656 63.742188l6.691407 8.96875-6.691407 8.96875c-35.171875 46.898438-99.929687 96.03125-162.019531 96.03125-24.019531 0-46.738281-6.730469-67.171875-16.621094 35.414063-35.410156 23.199219-23.195312 25.84375-25.839844zm41.328125 163.460938c-56.921875 0-108.988281-21.160156-148.769531-56.019531l59.378906-59.371094c29.910156 16.050781 60.210937 24.390625 89.390625 24.390625 74.660156 0 148.140625-57.128906 186.058594-108.089844l20.082031-26.910156-20.082031-26.921875c-14.921875-19.984375-42.035156-47.386719-70.546875-67.367187l54.46875-54.480469c34.859375 39.78125 56.019531 91.847656 56.019531 148.769531 0 124.621094-101.378906 226-226 226zm0 0"/></svg>